<svg xmlns="http://www.w3.org/2000/svg" viewBox="0 0 50 45">
  <title>Asset 1</title>
  <g id="Layer_2" data-name="Layer 2">
    <g id="Layer_1-2" data-name="Layer 1">
      <path d="M35,11.46a2.85,2.85,0,0,1-4.05,0,2.9,2.9,0,0,1,0-4.09,2.84,2.84,0,0,1,4.05,0,2.91,2.91,0,0,1,.85,2.05A2.86,2.86,0,0,1,35,11.46ZM33,4.67a4.74,4.74,0,1,0,3.32,8.09,4.77,4.77,0,0,0,1.37-3.35A4.71,4.71,0,0,0,33,4.67Z" style="fill: #de171d"/>
      <path d="M48.16,38.5a.16.16,0,0,1-.08.14,1.55,1.55,0,0,1-.54.28L34.09,43.13a.72.72,0,0,1-.14-.24V25.44a25.32,25.32,0,0,0,6.72-9,17.3,17.3,0,0,0,1.64-9.27L48,5.45a.61.61,0,0,1,.17.39ZM33,23.82a23.64,23.64,0,0,1-6-8.09c-1.63-3.62-3-9.81,1-12.59a8.5,8.5,0,0,1,5-1.33,8.52,8.52,0,0,1,5,1.33c3.95,2.78,2.6,9,1,12.59A23.69,23.69,0,0,1,33,23.82Zm-.9,19a.68.68,0,0,1-.14.25L18.52,38.92a1.68,1.68,0,0,1-.55-.28.17.17,0,0,1-.07-.14V6a.68.68,0,0,1,.16-.55l5.7,1.78a17.49,17.49,0,0,0,1.63,9.27,25.34,25.34,0,0,0,6.68,8.93l0,13.49Zm-16-36.79V38.5a.17.17,0,0,1-.07.14,1.68,1.68,0,0,1-.55.28L2,43.13a.61.61,0,0,1-.17-.39V10.06a.2.2,0,0,1,.08-.14,1.61,1.61,0,0,1,.54-.27L15.9,5.45A.75.75,0,0,1,16.06,6.06ZM49.27,4.11A1.84,1.84,0,0,0,48,3.58a1.62,1.62,0,0,0-.49.08L41.86,5.45a7.53,7.53,0,0,0-2.81-3.8A10.26,10.26,0,0,0,33,0a10.33,10.33,0,0,0-6,1.65,7.57,7.57,0,0,0-2.8,3.8L18.52,3.66a1.69,1.69,0,0,0-.5-.08A1.74,1.74,0,0,0,17,4a1.7,1.7,0,0,0-1.06-.38,1.67,1.67,0,0,0-.49.08L1.93,7.89A3.39,3.39,0,0,0,.7,8.54,1.93,1.93,0,0,0,0,10.06V42.73a2.5,2.5,0,0,0,.73,1.72A1.8,1.8,0,0,0,2,45a1.67,1.67,0,0,0,.49-.08L16,40.69a3.47,3.47,0,0,0,1-.48,3.66,3.66,0,0,0,1,.48l13.49,4.23A1.62,1.62,0,0,0,32,45,1.69,1.69,0,0,0,33,44.63a1.73,1.73,0,0,0,1.06.37,1.69,1.69,0,0,0,.5-.08l13.48-4.23a3.53,3.53,0,0,0,1.23-.64,2,2,0,0,0,.7-1.53V5.83A2.46,2.46,0,0,0,49.27,4.11Z" style="fill: #de171d"/>
    </g>
  </g>
</svg>
