<svg width="50" height="45" viewBox="0 0 50 45" fill="none" xmlns="http://www.w3.org/2000/svg">
<path d="M48.7147 33.1904L42.4987 27.5963C40.7849 26.054 37.9963 26.054 36.2827 27.5963L33.4573 30.1391C32.1589 31.3074 30.0464 31.3071 28.7486 30.1394L16.502 19.1086C15.2006 17.9375 15.2004 16.0419 16.502 14.8706C16.957 14.461 18.2638 13.2849 19.3274 12.3278C21.0335 10.7923 21.0574 8.29055 19.3257 6.73225L13.1114 1.15717C11.3976 -0.385049 8.6091 -0.385049 6.89994 1.15313C5.62098 2.29413 5.20847 2.66221 4.63501 3.17382C-1.54495 8.73546 -1.54495 17.7849 4.63471 23.3464L24.039 40.8187C30.2334 46.3935 40.2593 46.394 46.4542 40.8187L48.7147 38.7845C50.4284 37.2422 50.4284 34.7327 48.7147 33.1904ZM8.96741 3.02186C9.53863 2.50778 10.4679 2.50769 11.041 3.02326L17.2553 8.59834C17.828 9.11365 17.828 9.94767 17.2553 10.4631L16.2193 11.3954L7.93671 3.94137L8.96741 3.02186ZM26.1114 38.9543L6.70697 21.4818C1.9257 17.1789 1.66291 10.4223 5.89873 5.83673L14.1573 13.2691C11.9873 15.483 12.0777 18.8565 14.4295 20.973L26.6757 32.0034C26.6758 32.0035 26.676 32.0036 26.6761 32.0037C29.0253 34.118 32.7736 34.2047 35.2367 32.2491L43.4954 39.6816C38.4163 43.4872 30.9256 43.2869 26.1114 38.9543ZM46.6427 36.9198L45.6067 37.8522L37.3188 30.3933L38.3546 29.461C38.9259 28.9468 39.8554 28.9468 40.4268 29.461L46.6426 35.0551C47.214 35.5693 47.214 36.4058 46.6427 36.9198Z" fill="#DE171D"/>
</svg>
