<svg width="50" height="45" viewBox="0 0 50 45" fill="none" xmlns="http://www.w3.org/2000/svg">
<path d="M49.7654 14.4475L42.5246 9.1777V1.48024C42.4521 0.717738 41.882 0.105739 41.1455 0H9.42443C8.68803 0.105853 8.11782 0.717738 8.04523 1.48024V9.11844L0.517187 14.4474C0.218996 14.6704 0.0301375 15.0164 0 15.3947V43.5198C0.0978942 44.2917 0.68746 44.8993 1.43662 45H49.1332C49.7654 45 49.9953 44.2302 49.9953 43.5198V15.3948C49.9953 15.0395 50.0527 14.6842 49.7654 14.4475ZM42.5246 12.0198L47.4668 15.5131L42.5246 19.3618V12.0198ZM10.3439 2.36844H40.226V21.1975L25.2848 32.8028L10.3438 21.1975V2.36844H10.3439ZM8.04523 11.9606V19.4212L3.10313 15.5132L8.04523 11.9606ZM2.29864 17.9408L18.3891 30.4935L2.29864 41.6844V17.9408ZM5.05704 42.6317L20.3429 32.033L24.423 35.2304C24.654 35.4143 24.9357 35.518 25.2275 35.5264C25.4574 35.5264 25.5723 35.4079 25.8021 35.2304L30.0545 31.8553L45.5129 42.6317H5.05704ZM47.6966 41.2699L31.951 30.3751L47.6966 17.9408V41.2699Z" fill="#DE171D"/>
<path d="M16.0907 2.4055H21.2626C21.8974 2.4055 22.412 1.87537 22.412 1.22133C22.412 0.567286 21.8974 0.0371094 21.2626 0.0371094H16.0907C15.4559 0.0371094 14.9414 0.567286 14.9414 1.22133C14.9414 1.87537 15.4559 2.4055 16.0907 2.4055Z" fill="#DE171D"/>
<path d="M16.0907 7.73501H34.4798C35.1146 7.73501 35.6292 7.20488 35.6292 6.55084C35.6292 5.89681 35.1146 5.36658 34.4798 5.36658H16.0907C15.4559 5.36658 14.9414 5.89681 14.9414 6.55084C14.9414 7.20488 15.4559 7.73501 16.0907 7.73501Z" fill="#DE171D"/>
<path d="M35.6291 11.8801C35.6291 11.226 35.1145 10.6958 34.4797 10.6958H16.0907C15.4559 10.6958 14.9414 11.226 14.9414 11.8801C14.9414 12.5341 15.4559 13.0642 16.0907 13.0642H34.4798C35.1145 13.0642 35.6291 12.5341 35.6291 11.8801Z" fill="#DE171D"/>
</svg>
