<svg width="36" height="20" viewBox="0 0 36 20" fill="none" xmlns="http://www.w3.org/2000/svg">
<path d="M35.9996 19.9998H0.324219V0.180243H35.9996V19.9998Z" fill="#F0F0F0"/>
<path d="M20.3916 20H15.9322V11.9485H0.324219V8.23233H15.9322V0.180784H20.3916V8.23233H35.9996V11.9485H20.3916V20Z" fill="#D80027"/>
<path d="M27.7627 6.64362L35.9997 2.83018V6.64362H27.7627Z" fill="#0052B4"/>
<path d="M22.04 6.64362L36 0.180822V2.00834L25.9877 6.64362H22.04Z" fill="#0052B4"/>
<path d="M32.2815 0.180902L22.04 4.92267V0.180902H32.2815Z" fill="#0052B4"/>
<path d="M22.04 6.64362L36 0.180822V2.00834L25.9877 6.64362H22.04Z" fill="#F0F0F0"/>
<path d="M22.04 6.64362L36 0.180822V2.00834L25.9877 6.64362H22.04Z" fill="#D80027"/>
<path d="M6.61904 6.64368L0.324219 3.72943V6.64368H6.61904Z" fill="#0052B4"/>
<path d="M14.2843 5.82196V0.180952H2.10059L14.2843 5.82196Z" fill="#0052B4"/>
<path d="M10.3365 6.64362L0.324219 2.00834V0.180822L14.2842 6.64362H10.3365Z" fill="#D80027"/>
<path d="M8.56125 13.5372L0.324219 17.3506V13.5372H8.56125Z" fill="#0052B4"/>
<path d="M14.2842 13.5372L0.324219 20V18.1725L10.3365 13.5372H14.2842Z" fill="#0052B4"/>
<path d="M4.04297 20L14.2844 15.2582V20H4.04297Z" fill="#0052B4"/>
<path d="M14.2842 13.5372L0.324219 20V18.1725L10.3365 13.5372H14.2842Z" fill="#F0F0F0"/>
<path d="M14.2842 13.5372L0.324219 20V18.1725L10.3365 13.5372H14.2842Z" fill="#D80027"/>
<path d="M29.7051 13.537L35.9999 16.4513V13.537H29.7051Z" fill="#0052B4"/>
<path d="M22.04 14.3589V19.9999H34.2238L22.04 14.3589Z" fill="#0052B4"/>
<path d="M25.9877 13.5372L36 18.1725V20L22.04 13.5372H25.9877Z" fill="#D80027"/>
</svg>
