<svg width="50" height="45" viewBox="0 0 50 45" fill="none" xmlns="http://www.w3.org/2000/svg">
<path d="M48.5352 10.5469H44.043V1.31836C44.043 0.590274 43.3871 0 42.5781 0H25C24.191 0 23.5351 0.590274 23.5351 1.31836V10.5469H20.4581C19.7775 7.54172 16.8183 5.27344 13.2813 5.27344C9.74424 5.27344 6.78496 7.54172 6.10439 10.5469H1.46484C0.655857 10.5469 0 11.1371 0 11.8653V43.6816C0 44.4097 0.655857 45 1.46484 45H48.5352C49.3441 45 50 44.4097 50 43.6816V11.8653C50 11.1371 49.3441 10.5469 48.5352 10.5469ZM26.4648 2.63672H41.1133V10.5469H26.4648V2.63672ZM13.2813 7.91016C15.7044 7.91016 17.6757 9.68438 17.6757 11.8653V38.4082C17.6757 40.589 15.7044 42.3633 13.2813 42.3633C10.8581 42.3633 8.88672 40.589 8.88672 38.4082V11.8653C8.88672 9.68438 10.8581 7.91016 13.2813 7.91016ZM2.92969 13.1836H5.95704V38.4082C5.95704 39.891 6.50421 41.2608 7.42588 42.3633H2.92969V13.1836ZM47.0703 42.3633H19.1366C20.0583 41.2608 20.6054 39.891 20.6054 38.4082V13.1836H47.0703V42.3633Z" fill="#DE171D"/>
<path d="M36.7187 5.27356H30.8594C30.0504 5.27356 29.3945 5.86383 29.3945 6.59193C29.3945 7.32001 30.0504 7.91028 30.8594 7.91028H36.7187C37.5278 7.91028 38.1836 7.32001 38.1836 6.59193C38.1836 5.86383 37.5278 5.27356 36.7187 5.27356Z" fill="#DE171D"/>
<path d="M25.0001 15.9961C24.191 15.9961 23.5352 16.5864 23.5352 17.3145V22.5879C23.5352 23.316 24.191 23.9063 25.0001 23.9063H42.5781C43.3872 23.9063 44.043 23.316 44.043 22.5879V17.3145C44.043 16.5864 43.3872 15.9961 42.5781 15.9961H25.0001ZM41.1133 21.2695H26.4649V18.6328H41.1133V21.2695Z" fill="#DE171D"/>
<path d="M27.9297 29.1797C28.7387 29.1797 29.3945 28.5894 29.3945 27.8613C29.3945 27.1331 28.7387 26.543 27.9297 26.543C27.1207 26.543 26.4648 27.1331 26.4648 27.8613C26.4648 28.5894 27.1207 29.1797 27.9297 29.1797Z" fill="#DE171D"/>
<path d="M33.7891 29.1797C34.5981 29.1797 35.2539 28.5894 35.2539 27.8613C35.2539 27.1331 34.5981 26.543 33.7891 26.543C32.9801 26.543 32.3242 27.1331 32.3242 27.8613C32.3242 28.5894 32.9801 29.1797 33.7891 29.1797Z" fill="#DE171D"/>
<path d="M39.6484 29.1797C40.4574 29.1797 41.1133 28.5894 41.1133 27.8613C41.1133 27.1331 40.4574 26.543 39.6484 26.543C38.8394 26.543 38.1836 27.1331 38.1836 27.8613C38.1836 28.5894 38.8394 29.1797 39.6484 29.1797Z" fill="#DE171D"/>
<path d="M27.9297 34.4531C28.7387 34.4531 29.3945 33.8629 29.3945 33.1347C29.3945 32.4067 28.7387 31.8164 27.9297 31.8164C27.1207 31.8164 26.4648 32.4067 26.4648 33.1347C26.4648 33.8629 27.1207 34.4531 27.9297 34.4531Z" fill="#DE171D"/>
<path d="M33.7891 34.4531C34.5981 34.4531 35.2539 33.8629 35.2539 33.1347C35.2539 32.4067 34.5981 31.8164 33.7891 31.8164C32.9801 31.8164 32.3242 32.4067 32.3242 33.1347C32.3242 33.8629 32.9801 34.4531 33.7891 34.4531Z" fill="#DE171D"/>
<path d="M39.6484 34.4531C40.4574 34.4531 41.1133 33.8629 41.1133 33.1347C41.1133 32.4067 40.4574 31.8164 39.6484 31.8164C38.8394 31.8164 38.1836 32.4067 38.1836 33.1347C38.1836 33.8629 38.8394 34.4531 39.6484 34.4531Z" fill="#DE171D"/>
<path d="M27.9297 39.7267C28.7387 39.7267 29.3945 39.1364 29.3945 38.4083C29.3945 37.6802 28.7387 37.09 27.9297 37.09C27.1207 37.09 26.4648 37.6802 26.4648 38.4083C26.4648 39.1364 27.1207 39.7267 27.9297 39.7267Z" fill="#DE171D"/>
<path d="M33.7891 39.7267C34.5981 39.7267 35.2539 39.1364 35.2539 38.4083C35.2539 37.6802 34.5981 37.09 33.7891 37.09C32.9801 37.09 32.3242 37.6802 32.3242 38.4083C32.3242 39.1364 32.9801 39.7267 33.7891 39.7267Z" fill="#DE171D"/>
<path d="M39.6484 39.7267C40.4574 39.7267 41.1133 39.1364 41.1133 38.4083C41.1133 37.6802 40.4574 37.09 39.6484 37.09C38.8394 37.09 38.1836 37.6802 38.1836 38.4083C38.1836 39.1364 38.8394 39.7267 39.6484 39.7267Z" fill="#DE171D"/>
</svg>
