<svg width="36" height="20" viewBox="0 0 36 20" fill="none" xmlns="http://www.w3.org/2000/svg">
<path d="M35.6754 2.20233H0V4.40439H35.6754V2.20233Z" fill="#F5F5F5"/>
<path d="M35.6754 6.60645H0V8.80851H35.6754V6.60645Z" fill="#F5F5F5"/>
<path d="M35.6754 11.0112H0V13.2132H35.6754V11.0112Z" fill="#F5F5F5"/>
<path d="M35.6754 13.2133H0V15.4154H35.6754V13.2133Z" fill="#41479B"/>
<path d="M35.6754 15.4154H0V17.6175H35.6754V15.4154Z" fill="#F5F5F5"/>
<path d="M0.615121 19.8197H35.0603C35.4 19.8197 35.6754 19.5861 35.6754 19.2981V17.6174H0V19.2981C0 19.5862 0.275439 19.8197 0.615121 19.8197Z" fill="#41479B"/>
<path d="M35.6754 2.20224V0.521594C35.6754 0.233559 35.3999 0 35.0602 0H0.615121C0.275439 5.9084e-05 0 0.233559 0 0.521594V4.40442V6.60654V11.011H35.6754V8.80878H12.3019V6.6066H35.6754V4.40442H12.3019V2.20224H35.6754Z" fill="#41479B"/>
<path d="M12.3019 4.40448H7.44946V0.00012207H4.85241V4.40448H0V6.60666H4.85241V11.011H7.44946V6.60666H12.3019V4.40448Z" fill="#F5F5F5"/>
</svg>
